<?xml version="1.0" standalone="no"?>
<!DOCTYPE svg PUBLIC "-//W3C//DTD SVG 20010904//EN"
 "http://www.w3.org/TR/2001/REC-SVG-20010904/DTD/svg10.dtd">
<svg version="1.0" xmlns="http://www.w3.org/2000/svg"
 width="1024.000000pt" height="1024.000000pt" viewBox="0 0 1024.000000 1024.000000"
 preserveAspectRatio="xMidYMid meet">
<metadata>
Created by potrace 1.14, written by Peter Selinger 2001-2017
</metadata>
<g transform="translate(0.000000,1024.000000) scale(0.100000,-0.100000)"
fill="#000000" stroke="none">
<path d="M4888 10235 c-1 -1 -43 -6 -93 -9 -49 -4 -99 -9 -110 -11 -11 -2 -42
-7 -70 -10 -58 -6 -157 -21 -200 -30 -16 -4 -39 -8 -50 -10 -62 -11 -195 -42
-225 -53 -8 -3 -26 -7 -40 -9 -42 -7 -365 -116 -368 -125 -2 -4 -11 -8 -20 -8
-9 -1 -35 -9 -57 -20 -22 -11 -44 -19 -48 -20 -14 0 -320 -152 -372 -184 -27
-17 -67 -40 -87 -51 -21 -11 -38 -23 -38 -27 0 -5 -3 -7 -7 -6 -18 5 -252
-160 -413 -291 -125 -101 -162 -134 -294 -267 -109 -110 -120 -121 -214 -234
-34 -41 -68 -82 -75 -89 -6 -8 -35 -47 -64 -85 -29 -39 -56 -76 -61 -82 -5 -5
-22 -30 -38 -55 -16 -24 -32 -46 -37 -47 -4 -2 -5 -8 -1 -13 3 -5 -2 -12 -10
-15 -9 -3 -16 -10 -16 -14 0 -5 -24 -48 -53 -97 -30 -48 -64 -108 -78 -133
-13 -25 -28 -48 -32 -51 -5 -3 -8 -9 -8 -13 1 -3 -20 -50 -46 -104 -26 -53
-48 -99 -49 -102 0 -3 -10 -27 -22 -53 -12 -27 -22 -51 -22 -54 0 -3 -7 -19
-15 -36 -16 -35 -74 -193 -80 -217 -2 -8 -8 -27 -14 -43 -6 -15 -13 -38 -16
-50 -2 -12 -15 -60 -29 -107 -14 -47 -27 -96 -29 -110 -3 -14 -10 -45 -17 -70
-7 -25 -14 -56 -16 -70 -2 -14 -6 -36 -9 -50 -3 -14 -8 -45 -11 -70 -3 -25 -7
-47 -9 -50 -4 -7 -18 -130 -19 -162 0 -16 -3 -28 -6 -28 -13 0 -15 -351 -15
-3035 l0 -2860 29 -57 c51 -103 167 -193 257 -200 17 -1 33 -6 35 -10 3 -5 10
-5 16 -2 6 4 32 8 58 10 76 5 139 38 245 126 139 115 220 174 273 198 26 12
54 25 62 29 57 30 250 45 342 28 94 -17 221 -77 285 -134 17 -15 40 -35 50
-44 10 -8 37 -37 60 -65 23 -27 51 -60 63 -74 12 -14 43 -50 68 -79 26 -30 69
-80 97 -110 27 -31 56 -64 65 -75 8 -10 26 -31 40 -46 14 -15 50 -56 80 -91
165 -190 210 -236 258 -262 29 -15 62 -31 74 -34 33 -8 158 -9 191 -1 84 20
164 91 342 303 22 26 60 69 85 96 25 27 55 61 67 77 12 16 35 42 50 58 15 16
51 56 78 89 66 79 182 195 194 195 5 0 16 7 25 15 17 17 141 75 171 80 11 2
34 7 50 11 33 9 200 9 255 1 60 -9 195 -67 242 -105 34 -26 136 -131 197 -201
58 -66 61 -70 128 -149 24 -27 55 -63 70 -79 16 -17 47 -52 70 -79 235 -278
282 -313 424 -319 149 -7 232 42 389 234 19 24 49 58 65 76 17 17 53 58 80 91
28 32 70 81 95 109 125 142 167 190 185 214 11 14 59 65 106 112 70 71 102 94
170 127 83 40 100 46 189 62 86 15 278 -3 315 -30 6 -4 25 -12 43 -18 30 -10
133 -73 158 -97 6 -5 28 -24 50 -41 21 -18 63 -52 93 -75 113 -92 167 -118
254 -124 21 -1 40 -4 42 -7 8 -7 95 17 146 40 60 28 132 102 166 171 l28 56 0
2855 c0 2551 -3 2991 -20 3079 -2 13 -7 47 -10 75 -11 99 -17 134 -41 246 -3
14 -7 36 -10 50 -7 38 -45 193 -51 210 -3 8 -8 23 -10 33 -1 10 -13 48 -25 85
-12 37 -23 69 -23 72 -3 16 -40 116 -51 139 -8 14 -14 31 -14 36 0 17 -67 172
-132 304 -50 102 -127 240 -191 345 -32 52 -142 212 -154 224 -7 7 -13 16 -13
20 0 4 -13 21 -28 39 -15 17 -36 44 -47 59 -11 15 -29 38 -40 51 -11 12 -33
39 -50 60 -74 92 -247 268 -365 373 -40 36 -78 70 -84 75 -14 13 -138 111
-191 152 -22 17 -92 65 -155 106 -63 42 -120 81 -127 87 -7 5 -15 10 -19 10
-3 0 -39 19 -78 43 -75 45 -398 207 -414 207 -5 0 -31 9 -57 21 -78 35 -267
102 -277 99 -2 0 -30 9 -63 20 -32 11 -68 22 -80 24 -11 3 -67 17 -125 31 -58
15 -118 29 -135 31 -16 3 -50 9 -75 14 -25 5 -67 12 -95 16 -27 4 -57 8 -65 9
-8 2 -46 6 -85 10 -38 4 -83 9 -100 12 -33 5 -561 13 -567 8z m-894 -3214 c26
-6 61 -18 77 -27 16 -8 29 -12 29 -10 0 6 90 -46 113 -64 63 -49 126 -116 160
-169 23 -36 42 -67 43 -70 0 -3 7 -19 14 -36 7 -16 14 -33 15 -37 2 -5 3 -9 5
-10 1 -2 3 -10 5 -18 2 -8 6 -28 10 -45 13 -55 12 -209 -1 -275 -22 -105 -88
-224 -170 -307 -61 -61 -164 -134 -191 -135 -4 0 -17 -5 -28 -11 -11 -6 -24
-12 -30 -14 -94 -25 -136 -31 -222 -28 -105 3 -112 4 -188 30 -155 53 -295
175 -364 317 -54 112 -70 184 -65 304 4 121 6 144 14 144 3 0 7 10 7 22 1 13
21 60 43 106 32 63 60 101 114 155 81 80 101 97 114 97 5 0 15 7 22 15 6 8 15
14 18 13 4 -1 30 9 57 21 28 12 75 28 105 35 64 15 224 14 294 -3z m2541 6
c127 -32 225 -88 315 -177 123 -123 180 -255 186 -427 1 -57 -2 -117 -7 -135
-5 -18 -12 -46 -14 -63 -3 -16 -24 -68 -46 -113 -31 -64 -58 -101 -113 -155
-80 -79 -88 -85 -131 -107 -16 -8 -32 -18 -35 -21 -3 -4 -41 -19 -85 -34 -130
-45 -338 -40 -434 10 -17 8 -31 13 -31 11 0 -6 -90 46 -113 64 -63 49 -126
116 -160 169 -23 36 -42 67 -43 70 0 3 -7 20 -14 36 -7 17 -14 33 -15 38 -2 4
-3 8 -5 10 -1 1 -3 9 -5 17 -2 8 -6 29 -10 45 -6 28 -17 119 -16 140 3 164 71
325 187 442 61 61 164 134 191 135 4 0 17 5 28 11 22 12 20 12 95 30 52 13
228 16 275 4z"/>
</g>
</svg>
